<svg xmlns="http://www.w3.org/2000/svg" width="820" height="1500" viewBox="0 0 820 1500"><svg x="0" y="0" width="820.0" height="1500.0" viewBox="0 0 820 1500"><circle xmlns="http://www.w3.org/2000/svg" data-anchor="origin" cx="0" cy="0" r="0" opacity="0" />
  <circle xmlns="http://www.w3.org/2000/svg" data-anchor="input" cx="410" cy="1415" r="0" opacity="0" />
  <circle xmlns="http://www.w3.org/2000/svg" data-anchor="output" cx="410" cy="10" r="0" opacity="0" />
  <circle xmlns="http://www.w3.org/2000/svg" data-anchor="residual_lower_in" cx="410" cy="1050" r="0" opacity="0" />
  <circle xmlns="http://www.w3.org/2000/svg" data-anchor="residual_lower_out" cx="433" cy="665" r="0" opacity="0" />
  <circle xmlns="http://www.w3.org/2000/svg" data-anchor="residual_upper_in" cx="410" cy="630" r="0" opacity="0" />
  <circle xmlns="http://www.w3.org/2000/svg" data-anchor="residual_upper_out" cx="433" cy="355" r="0" opacity="0" />
  <style xmlns="http://www.w3.org/2000/svg">
    .global-frame{fill:none;stroke:#111;stroke-width:3;stroke-dasharray:9 8}.outer{fill:#d4d4d4;stroke:#111;stroke-width:4}.block{fill:#fb8f89;stroke:#111;stroke-width:4}.module{fill:#fff;stroke:#111;stroke-width:4}.attention{fill:#545454;stroke:#111;stroke-width:4}.sum{fill:#fff;stroke:#111;stroke-width:4}.flow{fill:none;stroke:#111;stroke-width:3.2;marker-end:url(#thin-arrow)}.residual{fill:none;stroke:#111;stroke-width:3.2;stroke-linejoin:round;marker-end:url(#thin-arrow)}.label{font:500 21px Arial,Helvetica,sans-serif;fill:#111;text-anchor:middle}.small{font:500 16px Arial,Helvetica,sans-serif;fill:#fff;text-anchor:middle}.repeat{font:700 19px Arial,Helvetica,sans-serif;fill:#111;text-anchor:end}.sum-label{font:700 28px Arial,Helvetica,sans-serif;fill:#111;text-anchor:middle}
  </style>
  <defs xmlns="http://www.w3.org/2000/svg">
    <marker id="main_network__thin-arrow" markerWidth="7" markerHeight="7" refX="7" refY="3.5" orient="auto">
      <path d="M0 0 L7 3.5 L0 7z" fill="#111" />
    </marker>
  </defs>
  
  <rect xmlns="http://www.w3.org/2000/svg" width="820" height="1500" fill="none" />
  <rect xmlns="http://www.w3.org/2000/svg" class="global-frame" x="2" y="2" width="816" height="1496" rx="28" />

  <rect xmlns="http://www.w3.org/2000/svg" class="outer" x="120" y="40" width="580" height="1250" rx="62" />
  <rect xmlns="http://www.w3.org/2000/svg" class="module" x="299" y="95" width="222" height="55" rx="13" />
  <rect xmlns="http://www.w3.org/2000/svg" class="module" x="313" y="195" width="194" height="55" rx="13" />
  <text xmlns="http://www.w3.org/2000/svg" data-slot="lm_head_label" class="label" x="410" y="130">LM Head</text>
  <text xmlns="http://www.w3.org/2000/svg" data-slot="final_norm_label" class="label" x="410" y="230">Final RMSNorm</text>

  
  <rect xmlns="http://www.w3.org/2000/svg" class="block" x="195" y="300" width="430" height="790" rx="56" />
  <text xmlns="http://www.w3.org/2000/svg" data-slot="decoder_repeat_label" class="repeat" x="390" y="328">Decoder Block × 61</text>
  <circle xmlns="http://www.w3.org/2000/svg" class="sum" cx="410" cy="355" r="20" />
  <rect xmlns="http://www.w3.org/2000/svg" class="module" x="301" y="430" width="218" height="55" rx="13" fill="#e5e5e5" />
  <rect xmlns="http://www.w3.org/2000/svg" class="module" x="304" y="535" width="212" height="55" rx="13" />
  <circle xmlns="http://www.w3.org/2000/svg" class="sum" cx="410" cy="665" r="20" />
  <rect xmlns="http://www.w3.org/2000/svg" class="attention" x="266" y="725" width="288" height="170" rx="16" />
  <rect xmlns="http://www.w3.org/2000/svg" class="module" x="304" y="950" width="212" height="55" rx="13" />
  <text xmlns="http://www.w3.org/2000/svg" data-slot="residual_operator" class="sum-label" x="410" y="365">+</text>
  <text xmlns="http://www.w3.org/2000/svg" data-slot="ffn_label" class="label" x="410" y="465">Sparse MoE FFN</text>
  <text xmlns="http://www.w3.org/2000/svg" data-slot="post_attention_norm_label" class="label" x="410" y="570">RMSNorm</text>
  <text xmlns="http://www.w3.org/2000/svg" data-slot="residual_operator" class="sum-label" x="410" y="675">+</text>
  <text xmlns="http://www.w3.org/2000/svg" data-slot="attention_label" class="small" x="410" y="788">Hybrid Attention</text>
  <text xmlns="http://www.w3.org/2000/svg" data-slot="attention_schedule_label" class="small" x="410" y="817">full attention + sliding window attention · w=128</text>
  <text xmlns="http://www.w3.org/2000/svg" data-slot="input_norm_label" class="label" x="410" y="985">RMSNorm</text>

  <rect xmlns="http://www.w3.org/2000/svg" class="module" x="262" y="1130" width="296" height="55" rx="13" />
  <rect xmlns="http://www.w3.org/2000/svg" class="module" x="289" y="1360" width="242" height="55" rx="13" />
  <text xmlns="http://www.w3.org/2000/svg" data-slot="embedding_label" class="label" x="410" y="1165">Token embedding</text>
  <text xmlns="http://www.w3.org/2000/svg" data-slot="input_label" class="label" x="410" y="1395">Tokenized text</text>

  <path xmlns="http://www.w3.org/2000/svg" class="flow" d="M410 1360 V1188" />
  <path xmlns="http://www.w3.org/2000/svg" class="flow" d="M410 1130 V1008" />
  <path xmlns="http://www.w3.org/2000/svg" class="flow" d="M410 950 V898" />
  <path xmlns="http://www.w3.org/2000/svg" class="flow" d="M410 725 V688" />
  <path xmlns="http://www.w3.org/2000/svg" class="flow" d="M410 645 V593" />
  <path xmlns="http://www.w3.org/2000/svg" class="flow" d="M410 535 V488" />
  <path xmlns="http://www.w3.org/2000/svg" class="flow" d="M410 430 V378" />
  <path xmlns="http://www.w3.org/2000/svg" class="flow" d="M410 335 V253" />
  <path xmlns="http://www.w3.org/2000/svg" class="flow" d="M410 195 V153" />
  <path xmlns="http://www.w3.org/2000/svg" class="flow" d="M410 95 V10" />

  <path xmlns="http://www.w3.org/2000/svg" class="residual" d="M410 1050 H590 V665 H433" />
  <path xmlns="http://www.w3.org/2000/svg" class="residual" d="M410 630 H590 V355 H433" />
</svg></svg>